<svg width="18" height="20" viewBox="0 0 18 20" fill="none" xmlns="http://www.w3.org/2000/svg">
<path d="M8.2 0.599976C7.7584 0.599976 7.4 0.958376 7.4 1.39998V2.3531C3.31124 3.1091 0.200001 6.69644 0.200001 11C0.200001 15.8506 4.14937 19.8 9 19.8C13.8506 19.8 17.8 15.8506 17.8 11C17.8 6.69644 14.6888 3.1091 10.6 2.3531V1.39998C10.6 0.958376 10.2416 0.599976 9.8 0.599976H8.2ZM15.3922 2.19216C15.233 2.1922 15.0775 2.23971 14.9455 2.3286C14.8135 2.41749 14.711 2.54373 14.6511 2.69118C14.5912 2.83863 14.5767 3.00059 14.6093 3.15635C14.642 3.31211 14.7203 3.4546 14.8344 3.5656L15.6344 4.3656C15.7081 4.44238 15.7964 4.50368 15.8941 4.54591C15.9918 4.58813 16.0969 4.61044 16.2034 4.61152C16.3098 4.61261 16.4154 4.59244 16.5139 4.55221C16.6125 4.51198 16.702 4.45249 16.7773 4.37723C16.8525 4.30196 16.912 4.21244 16.9522 4.1139C16.9925 4.01536 17.0126 3.90978 17.0115 3.80335C17.0105 3.69691 16.9882 3.59177 16.9459 3.49406C16.9037 3.39636 16.8424 3.30807 16.7656 3.23435L15.9656 2.43435C15.8911 2.35772 15.8019 2.2968 15.7034 2.2552C15.6049 2.2136 15.4991 2.19217 15.3922 2.19216ZM9 3.79998C12.9859 3.79998 16.2 7.01405 16.2 11C16.2 14.9859 12.9859 18.2 9 18.2C5.01407 18.2 1.8 14.9859 1.8 11C1.8 7.01405 5.01407 3.79998 9 3.79998ZM8.9875 5.38904C8.7756 5.39235 8.57367 5.4796 8.42603 5.63163C8.27839 5.78367 8.1971 5.98807 8.2 6.19998V9.61716C7.95718 9.75735 7.75547 9.95889 7.61507 10.2016C7.47466 10.4443 7.4005 10.7196 7.4 11C7.40022 11.2806 7.47426 11.5563 7.61468 11.7993C7.75509 12.0422 7.95696 12.244 8.2 12.3843V13.4C8.1985 13.506 8.21809 13.6112 8.25762 13.7096C8.29715 13.808 8.35584 13.8975 8.43027 13.973C8.50471 14.0485 8.59341 14.1085 8.69121 14.1494C8.78902 14.1903 8.89398 14.2114 9 14.2114C9.10602 14.2114 9.21098 14.1903 9.30879 14.1494C9.4066 14.1085 9.49529 14.0485 9.56973 13.973C9.64416 13.8975 9.70285 13.808 9.74238 13.7096C9.78191 13.6112 9.8015 13.506 9.8 13.4V12.3828C10.0428 12.2426 10.2445 12.0411 10.3849 11.7984C10.5253 11.5557 10.5995 11.2804 10.6 11C10.5998 10.7193 10.5257 10.4437 10.3853 10.2007C10.2449 9.9577 10.043 9.75592 9.8 9.6156V6.19998C9.80147 6.09294 9.78144 5.98671 9.74111 5.88755C9.70077 5.7884 9.64095 5.69835 9.56519 5.62273C9.48943 5.54712 9.39926 5.48747 9.30003 5.44733C9.2008 5.40719 9.09453 5.38737 8.9875 5.38904Z" fill="#83F6B1"/>
</svg>
